<svg width="72" height="72" viewBox="0 0 72 72" fill="none" xmlns="http://www.w3.org/2000/svg">
<path d="M15 30C15 20.0589 23.0589 12 33 12C40.881 12 47.5741 17.0623 50.0138 24.1114C59.0071 25.1126 66 32.7396 66 42C66 51.9411 57.9411 60 48 60H21C12.7157 60 6 53.2843 6 45C6 38.8307 9.72218 33.5361 15.0416 31.231C15.014 30.8239 15 30.4134 15 30ZM33 18C26.3726 18 21 23.3726 21 30C21 30.9086 21.1005 31.7902 21.2897 32.6355C21.6515 34.2519 20.6349 35.8556 19.0187 36.2181C15.0005 37.1195 12 40.7129 12 45C12 49.9706 16.0294 54 21 54H48C54.6274 54 60 48.6274 60 42C60 35.3726 54.6274 30 48 30C47.9196 30 47.8394 30.0008 47.7593 30.0024C46.3104 30.0307 45.0484 29.0194 44.7604 27.5991C43.6497 22.1219 38.8028 18 33 18Z" fill="white"/>
</svg>
