<svg width="72" height="72" viewBox="0 0 72 72" fill="none" xmlns="http://www.w3.org/2000/svg">
<path d="M48 15C52.9706 15 57 19.0294 57 24C57 25.7272 56.5134 27.3408 55.6699 28.7112C53.9205 27.886 52.0168 27.3344 50.0138 27.1114C48.5792 22.9665 45.6741 19.5086 41.9215 17.3628C43.5229 15.8954 45.6569 15 48 15ZM35.8353 15.222C34.9118 15.0759 33.9648 15 33 15C23.0589 15 15 23.0589 15 33C15 33.4134 15.014 33.8239 15.0416 34.231C9.72218 36.5361 6 41.8307 6 48C6 56.2843 12.7157 63 21 63H48C57.9411 63 66 54.9411 66 45C66 39.964 63.9319 35.4111 60.5987 32.1441C62.1179 29.7988 63 27.0024 63 24C63 15.7157 56.2843 9 48 9C42.9936 9 38.56 11.4527 35.8353 15.222ZM21 33C21 26.3726 26.3726 21 33 21C38.8028 21 43.6497 25.1219 44.7604 30.5991C45.0484 32.0194 46.3104 33.0307 47.7593 33.0024C47.8394 33.0008 47.9196 33 48 33C54.6274 33 60 38.3726 60 45C60 51.6274 54.6274 57 48 57H21C16.0294 57 12 52.9706 12 48C12 43.7129 15.0005 40.1195 19.0187 39.2181C20.6349 38.8556 21.6515 37.2519 21.2897 35.6356C21.1005 34.7902 21 33.9086 21 33Z" fill="white"/>
</svg>
