<svg width="12" height="13" viewBox="0 0 12 13" fill="none" xmlns="http://www.w3.org/2000/svg">
<path d="M6 7.1665C6.9665 7.1665 7.75 6.383 7.75 5.4165C7.75 4.45001 6.9665 3.6665 6 3.6665C5.0335 3.6665 4.25 4.45001 4.25 5.4165C4.25 6.383 5.0335 7.1665 6 7.1665Z" stroke="white" stroke-width="1.2" stroke-linecap="round" stroke-linejoin="round"/>
<path d="M9.29992 8.71641L6.82483 11.1915C6.60608 11.41 6.30951 11.5328 6.00029 11.5328C5.69108 11.5328 5.39451 11.41 5.17575 11.1915L2.70008 8.71641C2.04746 8.06376 1.60303 7.23224 1.42299 6.327C1.24294 5.42176 1.33537 4.48346 1.68859 3.63076C2.0418 2.77805 2.63994 2.04923 3.40736 1.53646C4.17479 1.02369 5.07703 0.75 6 0.75C6.92297 0.75 7.82521 1.02369 8.59264 1.53646C9.36006 2.04923 9.9582 2.77805 10.3114 3.63076C10.6646 4.48346 10.7571 5.42176 10.577 6.327C10.397 7.23224 9.95254 8.06376 9.29992 8.71641V8.71641Z" stroke="white" stroke-width="1.2" stroke-linecap="round" stroke-linejoin="round"/>
</svg>
