<svg width="79" height="26" viewBox="0 0 79 26" fill="none" xmlns="http://www.w3.org/2000/svg">
<g opacity="0.8">
<path d="M79.8533 17.9378H72.9839C72.9839 16.4291 71.7193 15.2021 70.1645 15.2021H57.3683C55.1273 15.2021 53.2124 13.4488 53.2124 11.3092C53.2844 10.6782 53.3204 10.0102 53.3204 9.34428C53.3204 0.329443 45.7647 -7 36.4763 -7C27.1858 -7 19.6301 0.329443 19.6301 9.34428C19.6301 10.3966 19.7402 11.414 19.9203 12.3965H7.26816C3.47442 12.3965 0.400879 15.3768 0.400879 19.06C0.400879 22.7432 3.47442 25.7235 7.26816 25.7235H79.1288H79.8151C82.0202 25.7235 83.7932 24.0052 83.7932 21.8656C83.8292 19.691 82.0562 17.9378 79.8533 17.9378Z" fill="#826AF6"/>
<path d="M72.984 18.0078C72.8039 19.165 71.9715 20.1824 70.851 20.6037L72.984 18.0078Z" fill="#826AF6"/>
<path d="M19.8483 12.6062C20.4626 14.2546 21.4751 15.7283 22.7396 16.9554L19.8483 12.6062Z" fill="#826AF6"/>
</g>
</svg>
