<svg width="72" height="72" viewBox="0 0 72 72" fill="none" xmlns="http://www.w3.org/2000/svg">
<path d="M36 6C37.6569 6 39 7.34315 39 9V12C39 13.6569 37.6569 15 36 15C34.3431 15 33 13.6569 33 12V9C33 7.34315 34.3431 6 36 6ZM57.2134 14.7868C58.3849 15.9583 58.3849 17.8578 57.2134 19.0294L55.092 21.1507C53.9205 22.3223 52.021 22.3223 50.8494 21.1507C49.6778 19.9792 49.6778 18.0797 50.8494 16.9081L52.9707 14.7868C54.1423 13.6152 56.0418 13.6152 57.2134 14.7868ZM14.7868 14.7868C15.9584 13.6152 17.8578 13.6152 19.0294 14.7868L21.1507 16.9081C22.3223 18.0797 22.3223 19.9792 21.1507 21.1507C19.9792 22.3223 18.0797 22.3223 16.9081 21.1507L14.7868 19.0294C13.6152 17.8578 13.6152 15.9584 14.7868 14.7868ZM36 24C29.3726 24 24 29.3726 24 36C24 42.6274 29.3726 48 36 48C42.6274 48 48 42.6274 48 36C48 29.3726 42.6274 24 36 24ZM18 36C18 26.0589 26.0589 18 36 18C45.9411 18 54 26.0589 54 36C54 45.9411 45.9411 54 36 54C26.0589 54 18 45.9411 18 36ZM6 36C6 34.3431 7.34315 33 9 33H12C13.6569 33 15 34.3431 15 36C15 37.6569 13.6569 39 12 39H9C7.34315 39 6 37.6569 6 36ZM57 36C57 34.3431 58.3431 33 60 33H63C64.6569 33 66 34.3431 66 36C66 37.6569 64.6569 39 63 39H60C58.3431 39 57 37.6569 57 36ZM16.9081 50.8492C18.0797 49.6776 19.9792 49.6776 21.1507 50.8492C22.3223 52.0208 22.3223 53.9203 21.1507 55.0919L19.0294 57.2132C17.8578 58.3847 15.9584 58.3847 14.7868 57.2132C13.6152 56.0416 13.6152 54.1421 14.7868 52.9705L16.9081 50.8492ZM50.8494 55.0919C49.6778 53.9203 49.6778 52.0208 50.8494 50.8492C52.021 49.6776 53.9205 49.6776 55.092 50.8492L57.2134 52.9705C58.3849 54.1421 58.3849 56.0416 57.2134 57.2132C56.0418 58.3848 54.1423 58.3848 52.9707 57.2132L50.8494 55.0919ZM36 57C37.6569 57 39 58.3431 39 60V63C39 64.6569 37.6569 66 36 66C34.3431 66 33 64.6569 33 63V60C33 58.3431 34.3431 57 36 57Z" fill="white"/>
</svg>
