<svg width="20" height="20" viewBox="0 0 20 20" fill="none" xmlns="http://www.w3.org/2000/svg">
<path d="M16.2498 10.4166C16.2498 9.26659 17.1832 8.33325 18.3332 8.33325V7.49992C18.3332 4.16659 17.4998 3.33325 14.1665 3.33325H5.83317C2.49984 3.33325 1.6665 4.16659 1.6665 7.49992V7.91659C2.8165 7.91659 3.74984 8.84992 3.74984 9.99992C3.74984 11.1499 2.8165 12.0833 1.6665 12.0833V12.4999C1.6665 15.8333 2.49984 16.6666 5.83317 16.6666H14.1665C17.4998 16.6666 18.3332 15.8333 18.3332 12.4999C17.1832 12.4999 16.2498 11.5666 16.2498 10.4166Z" stroke="#9CA3AF" stroke-width="1.5" stroke-linecap="round" stroke-linejoin="round"/>
<path d="M7.5 12.2917L12.5 7.29175" stroke="#9CA3AF" stroke-width="1.5" stroke-linecap="round" stroke-linejoin="round"/>
<path d="M12.4956 12.2917H12.5031" stroke="#9CA3AF" stroke-width="2" stroke-linecap="round" stroke-linejoin="round"/>
<path d="M7.49559 7.70841H7.50307" stroke="#9CA3AF" stroke-width="2" stroke-linecap="round" stroke-linejoin="round"/>
</svg>
