<svg width="37" height="12" viewBox="0 0 37 12" fill="none" xmlns="http://www.w3.org/2000/svg">
<g clip-path="url(#clip0_3501_47919)">
<path d="M24.0939 0.0185547C21.4694 0.0185547 19.124 1.37739 19.124 3.88793C19.124 6.76705 23.2836 6.96591 23.2836 8.4123C23.2836 9.02132 22.5849 9.56648 21.3916 9.56648C19.698 9.56648 18.4322 8.80472 18.4322 8.80472L17.8906 11.3381C17.8906 11.3381 19.3487 11.9816 21.2847 11.9816C24.1541 11.9816 26.412 10.556 26.412 8.00257C26.412 4.96026 22.2351 4.76731 22.2351 3.42482C22.2351 2.94774 22.8086 2.42501 23.9986 2.42501C25.3412 2.42501 26.4366 2.97902 26.4366 2.97902L26.9667 0.532163C26.9667 0.532163 25.7748 0.0185547 24.0939 0.0185547ZM0.0821047 0.203223L0.0185547 0.57256C0.0185547 0.57256 1.12269 0.774411 2.11715 1.17706C3.39759 1.63878 3.48881 1.90757 3.70446 2.74241L6.05436 11.7912H9.20442L14.0573 0.203223H10.9145L7.79621 8.08192L6.52377 1.40357C6.40707 0.639235 5.81598 0.203223 5.09245 0.203223H0.0821047ZM15.3211 0.203223L12.8557 11.7912H15.8526L18.3094 0.203223H15.3211ZM32.0362 0.203223C31.3135 0.203223 30.9306 0.589702 30.6497 1.26507L26.2589 11.7912H29.4018L30.0098 10.0368H33.8387L34.2085 11.7912H36.9816L34.5623 0.203223H32.0362ZM32.445 3.33393L33.3765 7.68229H30.8808L32.445 3.33393Z" fill="#13D5DF"/>
</g>
<defs>
<clipPath id="clip0_3501_47919">
<rect width="37" height="12" fill="white"/>
</clipPath>
</defs>
</svg>
