<svg width="12" height="12" viewBox="0 0 12 12" fill="none" xmlns="http://www.w3.org/2000/svg">
<path d="M6.00007 0.75C7.36263 1.9555 9.14101 2.58316 10.9584 2.5C11.223 3.40009 11.304 4.34419 11.1965 5.27619C11.089 6.20819 10.7953 7.10907 10.3327 7.92531C9.87018 8.74154 9.24829 9.45647 8.504 10.0276C7.7597 10.5988 6.90819 11.0144 6.00007 11.25C5.09194 11.0144 4.24043 10.5988 3.49613 10.0276C2.75184 9.45647 2.12995 8.74154 1.66741 7.92531C1.20488 7.10907 0.911144 6.20819 0.80366 5.27619C0.696176 4.34419 0.777137 3.40009 1.04173 2.5C2.85912 2.58316 4.6375 1.9555 6.00007 0.75" stroke="#9CA3AF" stroke-linecap="round" stroke-linejoin="round"/>
<path d="M6.00008 6.00004C6.32225 6.00004 6.58341 5.73887 6.58341 5.41671C6.58341 5.09454 6.32225 4.83337 6.00008 4.83337C5.67792 4.83337 5.41675 5.09454 5.41675 5.41671C5.41675 5.73887 5.67792 6.00004 6.00008 6.00004Z" stroke="#9CA3AF" stroke-linecap="round" stroke-linejoin="round"/>
<path d="M6 6V7.45833" stroke="#9CA3AF" stroke-linecap="round" stroke-linejoin="round"/>
</svg>
