<svg width="12" height="13" viewBox="0 0 12 13" fill="none" xmlns="http://www.w3.org/2000/svg">
<path d="M11.25 7.73204C9.58195 8.40651 7.79925 8.75216 6 8.74996C4.14325 8.74996 2.37167 8.38829 0.75 7.73204M6 6.99996H6.00583M8.33333 3.49996V2.33329C8.33333 2.02387 8.21042 1.72713 7.99162 1.50833C7.77283 1.28954 7.47609 1.16663 7.16667 1.16663H4.83333C4.52391 1.16663 4.22717 1.28954 4.00838 1.50833C3.78958 1.72713 3.66667 2.02387 3.66667 2.33329V3.49996H8.33333ZM1.91667 11.6666H10.0833C10.3928 11.6666 10.6895 11.5437 10.9083 11.3249C11.1271 11.1061 11.25 10.8094 11.25 10.5V4.66663C11.25 4.35721 11.1271 4.06046 10.9083 3.84167C10.6895 3.62288 10.3928 3.49996 10.0833 3.49996H1.91667C1.60725 3.49996 1.3105 3.62288 1.09171 3.84167C0.872916 4.06046 0.75 4.35721 0.75 4.66663V10.5C0.75 10.8094 0.872916 11.1061 1.09171 11.3249C1.3105 11.5437 1.60725 11.6666 1.91667 11.6666Z" stroke="#9CA3AF" stroke-linecap="round" stroke-linejoin="round"/>
</svg>
